<?xml version="1.0" encoding="UTF-8"?>
<svg id="_Слой_1" data-name="Слой 1" xmlns="http://www.w3.org/2000/svg" viewBox="0 0 778.01 778.01">
  <defs>
    <style>
      .cls-1 {
        fill: none;
        stroke: #000;
        stroke-miterlimit: 10;
        stroke-width: 4px;
      }
    </style>
  </defs>
  <path class="cls-1" d="M662.66,662.66c-151.14,151.14-396.17,151.14-547.31,0-151.14-151.14-151.14-396.17,0-547.31,151.14-151.14,396.17-151.14,547.31,0,151.14,151.14,151.14,396.17,0,547.31ZM115.35,153.66c140.56-140.56,368.44-140.56,509,0,140.56,140.56,140.56,368.44,0,509s-368.44,140.56-509,0c-140.56-140.56-140.56-368.44,0-509ZM588.72,662.66c-130.72,130.72-342.65,130.72-473.37,0-130.72-130.72-130.72-342.65,0-473.37,130.72-130.72,342.65-130.72,473.37,0,130.72,130.72,130.72,342.65,0,473.37ZM115.35,222.43c121.57-121.57,318.67-121.57,440.23,0,121.57,121.57,121.57,318.67,0,440.23-121.57,121.57-318.67,121.57-440.23,0-121.57-121.57-121.57-318.67,0-440.23ZM524.77,662.66c-113.06,113.06-296.36,113.06-409.42,0C2.29,549.6,2.29,366.3,115.35,253.25c113.06-113.06,296.36-113.06,409.42,0s113.06,296.36,0,409.42ZM115.35,281.9c105.14-105.14,275.61-105.14,380.76,0,105.14,105.14,105.14,275.61,0,380.76s-275.61,105.14-380.76,0c-105.14-105.14-105.14-275.61,0-380.76ZM469.46,662.66c-97.78,97.78-256.32,97.78-354.1,0-97.78-97.78-97.78-256.32,0-354.1,97.78-97.78,256.32-97.78,354.1,0,97.78,97.78,97.78,256.32,0,354.1ZM115.35,333.34c90.94-90.94,238.38-90.94,329.32,0s90.94,238.38,0,329.32c-90.94,90.94-238.38,90.94-329.32,0-90.94-90.94-90.94-238.38,0-329.32ZM421.62,662.66c-84.57,84.57-221.69,84.57-306.26,0s-84.57-221.69,0-306.26c84.57-84.57,221.69-84.57,306.26,0s84.57,221.69,0,306.26ZM115.35,377.84c78.65-78.65,206.17-78.65,284.83,0,78.65,78.65,78.65,206.17,0,284.83-78.65,78.65-206.17,78.65-284.83,0-78.65-78.65-78.65-206.17,0-284.83ZM380.24,662.66c-73.15,73.15-191.74,73.15-264.89,0-73.15-73.15-73.15-191.74,0-264.89,73.15-73.15,191.74-73.15,264.89,0,73.15,73.15,73.15,191.74,0,264.89ZM115.35,416.32c68.03-68.03,178.32-68.03,246.35,0,68.03,68.03,68.03,178.32,0,246.35-68.03,68.03-178.32,68.03-246.35,0-68.03-68.03-68.03-178.32,0-246.35ZM344.45,662.66c-63.26,63.26-165.84,63.26-229.1,0-63.26-63.26-63.26-165.84,0-229.1,63.26-63.26,165.84-63.26,229.1,0,63.26,63.26,63.26,165.84,0,229.1ZM115.35,449.6c58.84-58.84,154.23-58.84,213.06,0,58.84,58.84,58.84,154.23,0,213.06-58.84,58.84-154.23,58.84-213.06,0-58.84-58.84-58.84-154.23,0-213.06ZM313.5,662.66c-54.72,54.72-143.43,54.72-198.15,0s-54.72-143.43,0-198.15c54.72-54.72,143.43-54.72,198.15,0s54.72,143.43,0,198.15ZM115.35,478.38c50.89-50.89,133.39-50.89,184.28,0,50.89,50.89,50.89,133.39,0,184.28-50.89,50.89-133.39,50.89-184.28,0-50.89-50.89-50.89-133.39,0-184.28ZM286.73,662.66c-47.33,47.33-124.05,47.33-171.38,0-47.33-47.33-47.33-124.05,0-171.38s124.05-47.33,171.38,0c47.33,47.33,47.33,124.05,0,171.38ZM115.35,503.28c44.01-44.01,115.37-44.01,159.38,0,44.01,44.01,44.01,115.37,0,159.38-44.01,44.01-115.37,44.01-159.38,0-44.01-44.01-44.01-115.37,0-159.38ZM263.58,662.66c-40.93,40.93-107.29,40.93-148.23,0-40.93-40.93-40.93-107.29,0-148.23,40.93-40.93,107.29-40.93,148.23,0,40.93,40.93,40.93,107.29,0,148.23ZM115.35,524.81c38.07-38.07,99.78-38.07,137.85,0,38.07,38.07,38.07,99.78,0,137.85s-99.78,38.07-137.85,0c-38.07-38.07-38.07-99.78,0-137.85Z"/>
</svg>