<?xml version="1.0" encoding="UTF-8"?>
<svg id="_Слой_1" data-name="Слой 1" xmlns="http://www.w3.org/2000/svg" viewBox="0 0 936.55 936.55">
  <defs>
    <style>
      .cls-1 {
        stroke: #000;
        stroke-miterlimit: 10;
        stroke-width: 2px;
      }
    </style>
  </defs>
  <path class="cls-1" d="M935.55,468.27c0,258.07-209.21,467.27-467.27,467.27S1,726.34,1,468.27,210.21,1,468.27,1s467.27,209.21,467.27,467.27ZM582.67,119.32c0-63.18-51.22-114.39-114.39-114.39s-114.39,51.22-114.39,114.39,51.22,114.39,114.39,114.39,114.39-51.22,114.39-114.39ZM440.59,234.54c-50.55-12.86-86.1-55.17-90.21-105.79-4.17-51.39,25.27-99.02,73.81-119.49-137.69,26.79-219.2,168.74-174.3,300.67,54.57-43.58,120.01-69.24,190.7-75.39ZM686.78,309.9c44.77-133.39-37.72-273.92-174.18-300.59,48.6,20.8,77.94,68.38,73.5,120.14-4.28,49.88-39.33,91.94-90,105.12,70.53,5.98,136.07,31.99,190.68,75.32ZM139.23,462.25c21.88-58.49,58.83-110.14,107.36-149.72-42.28-123.2,22.41-255.84,145.37-298.91-58.87,12.58-111.89,41.21-155.59,80.04l-26.51,26.61c-55.72,62.21-87.32,142.13-88.54,225.93-.62,39.29,5.07,78.23,17.91,116.05ZM546.83,13.79c-1.02.07-1.26.23-.14.51l.14-.51ZM547.53,14.06l-.63.51c121.95,43.68,185.21,176.79,142.91,298.34l22.13,19.14,10.81,10.93c32.55,34.23,57.64,74.33,74.64,119.38,24.52-73.57,23.81-152.8-1.59-225.48-39.22-111.49-133.34-196.18-248.27-222.83ZM353.97,916.48c-97.5-33.6-176.13-109.27-213.3-205.94-29.8-77.49-31.13-163.44-3.57-242.31-26.55-75.71-26.37-158.92.68-234.47,36.53-102,117.48-180.3,219.63-215.11-79.37,18.62-151.56,59.64-209.89,115.18l-13.21,13.33C-27.63,315.24-38.95,578.48,108.11,759.8c62.68,77.28,148.97,133.04,245.29,157.4l.57-.73ZM581.46,19.07c-2.04-.16-2.22-.16.13.1l-.13-.1ZM582.55,19.16l-.23.82c103.69,35.71,185.17,118.14,219.42,222.45,24.09,73.37,23.19,153.01-2.3,225.88,25.01,71.42,26.22,148.98,3.98,220.48-33.62,108.1-116.79,192.1-223.36,228.83,78.77-18.52,150.41-59.4,208.32-114.28l14.03-14.16c87.6-90.85,133.94-213.53,128.85-339.73-4.39-108.88-46.92-212.73-120.5-293.19l-30.53-30.61c-56.35-51.24-124.13-87.88-197.68-106.49ZM685.35,313.75c-64.94-52.01-145.4-78.6-228.18-76.02-75.21,2.34-147.4,29.07-206,76.04,33.06,91.87,120.35,152.67,217.2,152.64,96.68-.03,184.03-60.85,216.98-152.66ZM247.95,620.06c29.86-80.73,101.32-139.33,188.57-151.8-86.11-12.18-158.14-69.85-188.58-151.81-48.93,40.32-85.61,92.63-106.78,151.88,16.99,46.99,43.25,89.56,77.87,124.94l28.92,26.8ZM688.59,620.11c49.01-40.49,85.77-92.83,106.78-151.97-21.46-59.36-57.68-111.28-106.74-151.67-30.5,81.8-102.6,139.88-189.01,151.79,87.03,12.11,159,70.6,188.97,151.85ZM685.4,622.62c-12.97-35.45-33.44-66.06-60.65-91.18-59.26-54.7-142.12-74.88-221.75-51.85-68.28,19.75-127.1,73.29-151.76,143.18,127.02,101.61,307.1,101.8,434.16-.15ZM388.88,921.72c-121.37-44.03-184.2-176.48-142.25-297.71-48.32-39.47-84.82-90.16-107.48-149.67-24.46,73.07-23.68,151.97,1.16,224.04,38.87,111.77,132.45,196.47,247.31,223.81l1.26-.46ZM721.06,822.26c36.77-38.96,63.62-85.53,79.25-136.35,20.64-68.59,20.34-142.12-2.95-211.55-22.36,58.84-58.73,109.94-107.41,149.59,42.17,122.74-21.93,255.03-144.36,298.67,67.93-14.7,128.58-50.72,175.47-100.37ZM422.96,926.82c-48.32-21.13-77.33-68.81-72.39-120.9s40.85-91.94,90.69-103.95c-70.9-5.77-136.64-31.79-191.45-75.41-27.06,80.02-8.57,168.76,48.9,230.71,32.69,35.23,75.8,60.69,124.25,69.55ZM513.36,927.04c138.21-27.52,217.96-170.26,173.22-300.44-54.77,43.77-120.42,69.46-191.08,75.4,49.91,12.09,86.21,54.5,90.57,104.78,4.56,52.48-25.12,99.33-72.71,120.27ZM582.67,817.23c0-63.18-51.22-114.4-114.4-114.4s-114.4,51.22-114.4,114.4,51.22,114.4,114.4,114.4,114.4-51.22,114.4-114.4ZM354.26,916.79l-.46.66,2.64-.03-2.17-.63ZM357.67,918.11h-.54s.54.03.54.03h1.1s-.54-.03-.54-.03h-.56ZM578.52,918.11h-.54s.54.03.54.03h1.1s-.54-.03-.54-.03h-.56ZM388.16,921.63l-.44.78h2.62s-2.18-.78-2.18-.78Z"/>
</svg>