<?xml version="1.0" encoding="UTF-8"?>
<svg id="_Слой_1" data-name="Слой 1" xmlns="http://www.w3.org/2000/svg" viewBox="0 0 1352.13 954.97">
  <defs>
    <style>
      .cls-1 {
        fill: none;
        stroke: #000;
        stroke-miterlimit: 10;
        stroke-width: 2px;
      }
    </style>
  </defs>
  <path class="cls-1" d="M1325.71,529.46c-502.18-174.15-691.41-144.96-754.71-59.98-58.79,78.93-2.88,197.86-83.3,278.23-78.3,78.25-226.39,60.56-353.2,26.66"/>
  <path class="cls-1" d="M1325.71,449.49c-502.18-174.15-691.41-144.96-754.71-59.98-58.79,78.93-2.88,197.86-83.3,278.23-78.3,78.25-226.39,60.56-353.2,26.66"/>
  <path class="cls-1" d="M1325.71,369.52c-502.18-174.15-691.41-144.96-754.71-59.98-58.79,78.93-2.88,197.86-83.3,278.23-78.3,78.25-226.39,60.56-353.2,26.66"/>
  <path class="cls-1" d="M1325.71,289.55c-502.18-174.15-691.41-144.96-754.71-59.98-58.79,78.93-2.88,197.86-83.3,278.23-78.3,78.25-226.39,60.56-353.2,26.66"/>
  <path class="cls-1" d="M1325.71,209.58c-502.18-174.15-691.41-144.96-754.71-59.98-58.79,78.93-2.88,197.86-83.3,278.23-78.3,78.25-226.39,60.56-353.2,26.66"/>
  <path class="cls-1" d="M1325.71,129.61C823.53-44.54,634.3-15.35,571,69.63c-58.79,78.93-2.88,197.86-83.3,278.23-78.3,78.25-226.39,60.56-353.2,26.66"/>
  <path class="cls-1" d="M1016.36,954.53c-231.95-478.24-386.4-591.41-491.25-576.07-97.39,14.24-141.94,137.87-255.64,137.83-110.69-.04-202.9-117.26-268.6-230.9"/>
  <path class="cls-1" d="M1127.98,859.57c-231.95-478.24-386.4-591.41-491.25-576.07-97.39,14.24-141.94,137.87-255.64,137.83-110.69-.04-202.9-117.26-268.6-230.9"/>
  <path class="cls-1" d="M1239.6,764.6c-231.95-478.24-386.4-591.41-491.25-576.07-97.39,14.24-141.94,137.87-255.64,137.83-110.69-.04-202.9-117.26-268.6-230.9"/>
  <path class="cls-1" d="M1351.23,669.64C1119.27,191.4,964.83,78.23,859.98,93.57c-97.39,14.24-141.94,137.87-255.64,137.83-110.69-.04-202.9-117.26-268.6-230.9"/>
</svg>